#!OML:ASF I:\Random Stuff\random\construction\7_22_03\Session 2\subj1.ASF
:FULLY-SPECIFIED
:DEGREES
1725
root 5.27225 17.7171 0.681718 10.6618 104.333 4.18583
lowerback -1.5398 1.36387 -2.2559
upperback -0.432228 1.857 1.79145
thorax 0.288633 0.935604 3.13464
lowerneck -20.3603 -1.31385 3.8114
upperneck 46.964 -3.59619 6.80508
head 24.5509 1.42992 2.80996
rclavicle -3.72224e-014 -1.39149e-014
rhumerus -28.2907 23.486 -70.0138
rradius 95.2953
rwrist -15.602
rhand 8.78591 10.2606
rfingers 7.12502
rthumb 33.9739 -16.5289
lclavicle -3.72224e-014 -1.39149e-014
lhumerus 8.48168 -7.66354 31.3984
lradius 116.859
lwrist 38.4769
lhand -29.2409 39.5614
lfingers 7.12502
lthumb -2.58433 789.525
rfemur 2.29533 20.8749 24.892
rtibia 4.99665
rfoot -17.8861 -53.4215
rtoes 19.2628
lfemur -16.8062 -17.558 -13.2717
ltibia 21.664
lfoot -11.3111 6.34034
ltoes -33.9446
1726
root 5.2571 17.7166 0.686797 10.8353 104.436 4.38798
lowerback -1.31504 1.3137 -2.22435
upperback -0.33967 1.78445 1.73843
thorax 0.265429 0.897744 3.05671
lowerneck -20.239 -1.37196 3.81256
upperneck 46.9292 -3.7512 6.96443
head 24.4869 1.39333 2.85668
rclavicle 5.0541e-014 -3.18055e-015
rhumerus -28.2836 23.7924 -70.4926
rradius 96.18
rwrist -14.4536
rhand 9.38732 9.93945
rfingers 7.12502
rthumb 34.545 -16.7217
lclavicle 5.0541e-014 -3.18055e-015
lhumerus 8.26069 -7.91717 31.9267
lradius 117.344
lwrist 37.7476
lhand -29.4225 39.4381
lfingers 7.12502
lthumb -2.75979 789.4
rfemur 2.23698 20.782 24.9383
rtibia 5.0195
rfoot -17.8689 -53.3958
rtoes 19.4257
lfemur -16.8773 -17.4629 -13.1951
ltibia 21.6676
lfoot -11.2646 6.14331
ltoes -33.9322
1727
root 5.24111 17.7199 0.691264 11.1795 104.569 4.63543
lowerback -1.189 1.27125 -2.13972
upperback -0.303467 1.72403 1.6824
thorax 0.240366 0.866998 2.94798
lowerneck -19.9687 -1.35244 3.99688
upperneck 46.7621 -3.80829 7.01093
head 24.1943 1.40439 2.79793
rclavicle 2.44008e-014 -1.49089e-014
rhumerus -28.4056 24.2253 -71.1735
rradius 96.946
rwrist -13.901
rhand 8.35248 9.66277
rfingers 7.12502
rthumb 33.5621 -17.2171
lclavicle 2.44008e-014 -1.49089e-014
lhumerus 8.07856 -8.14269 32.4505
lradius 117.895
lwrist 37.0021
lhand -29.8263 39.5868
lfingers 7.12502
lthumb -3.14973 789.543
rfemur 2.01475 20.6747 24.9467
rtibia 5.06072
rfoot -17.6922 -53.4238
rtoes 19.3573
lfemur -17.1055 -17.3901 -13.0519
ltibia 21.6741
lfoot -11.2191 5.95129
ltoes -33.7132
1728
root 5.2248 17.7247 0.695046 11.4731 104.628 4.80784
lowerback -1.07295 1.21893 -2.10795
upperback -0.283626 1.65143 1.63142
thorax 0.202951 0.830577 2.8743
lowerneck -19.8599 -1.45703 3.71499
upperneck 46.7765 -4.02765 7.45896
head 24.2345 1.3314 3.06653
rclavicle -1.80397e-014 2.5842e-015
rhumerus -28.5238 24.8355 -71.9369
rradius 97.6735
rwrist -13.2351
rhand 6.89971 9.56909
rfingers 7.12502
rthumb 32.1802 -17.6005
lclavicle -1.80397e-014 2.5842e-015
lhumerus 7.79942 -8.36642 32.9604
lradius 118.473
lwrist 35.9713
lhand -30.6658 39.7344
lfingers 7.12502
lthumb -3.96043 789.677
rfemur 1.77469 20.6377 24.8992
rtibia 5.03758
rfoot -16.9597 -53.5787
rtoes 18.3189
lfemur -17.3352 -17.3341 -12.9351
ltibia 21.6799
lfoot -11.1774 5.8549
ltoes -33.6156
1729
root 5.20924 17.7272 0.699819 11.6236 104.62 4.92566
lowerback -0.855005 1.17214 -2.13671
upperback -0.255978 1.58505 1.58869
thorax 0.113925 0.797879 2.84112
lowerneck -19.5425 -1.54184 3.75207
upperneck 46.663 -4.21739 7.5937
head 24.0062 1.28112 3.06312
rclavicle 5.69021e-015 -7.95139e-016
rhumerus -28.5626 25.4415 -72.6316
rradius 98.3715
rwrist -12.1235
rhand 5.03733 9.61289
rfingers 7.12502
rthumb 30.4056 -17.9002
lclavicle 5.69021e-015 -7.95139e-016
lhumerus 7.4243 -8.63753 33.5244
lradius 119.101
lwrist 34.3696
lhand -31.6493 40.0104
lfingers 7.12502
lthumb -4.9101 789.933
rfemur 1.71152 20.6558 24.8671
rtibia 4.87465
rfoot -16.3126 -53.6836
rtoes 17.6936
lfemur -17.4391 -17.268 -12.875
ltibia 21.6835
lfoot -11.1405 5.80727
ltoes -33.7571
1730
root 5.19515 17.7297 0.708562 12.0084 104.527 5.24549
lowerback -0.661478 1.16679 -2.17642
upperback -0.256354 1.57458 1.55851
thorax 0.0055364 0.793942 2.82778
lowerneck -19.2855 -1.64545 3.69958
upperneck 46.6541 -4.44167 7.86368
head 23.9363 1.22695 3.17037
rclavicle -2.68359e-014 -1.61016e-014
rhumerus -28.5689 25.9788 -73.2693
rradius 99.0693
rwrist -10.8256
rhand 3.02594 9.67787
rfingers 7.12502
rthumb 28.4853 -18.1732
lclavicle -2.68359e-014 -1.61016e-014
lhumerus 7.07317 -8.95249 34.1051
lradius 119.757
lwrist 32.3549
lhand -32.6008 40.8128
lfingers 7.12502
lthumb -5.8288 790.713
rfemur 1.64187 20.7694 24.8858
rtibia 4.66225
rfoot -15.8956 -53.6837
rtoes 17.6993
lfemur -17.565 -17.0981 -12.7559
ltibia 21.6941
lfoot -11.0925 5.77348
ltoes -34.0157
1731
root 5.182 17.7357 0.718867 12.6698 104.37 5.73403
lowerback -0.601984 1.20728 -2.21761
upperback -0.264794 1.62769 1.54545
thorax -0.0407011 0.821242 2.8361
lowerneck -19.0714 -1.77734 3.58236
upperneck 46.5882 -4.72512 8.19606
head 23.8456 1.1435 3.30587
rclavicle -7.23079e-015 5.96354e-015
rhumerus -28.5446 26.3527 -73.8338
rradius 99.8326
rwrist -9.16543
rhand 1.86095 9.56322
rfingers 7.12502
rthumb 27.3716 -18.469
lclavicle -7.23079e-015 5.96354e-015
lhumerus 6.86551 -9.27643 34.7513
lradius 120.389
lwrist 30.331
lhand -33.5669 41.9549
lfingers 7.12502
lthumb -6.76153 791.827
rfemur 1.43906 20.9646 24.9077
rtibia 4.45448
rfoot -15.3199 -53.7122
rtoes 17.5078
lfemur -17.8025 -16.9453 -12.5524
ltibia 21.7167
lfoot -11.053 5.83953
ltoes -34.0717
